<svg xmlns="http://www.w3.org/2000/svg" xmlns:xlink="http://www.w3.org/1999/xlink" width="759" height="771" viewBox="0 0 759 771">
  <defs>
    <style>
      .cls-1 {
        clip-path: url(#clip-logo_background);
      }

      .cls-2 {
        fill: #fff;
      }

      .cls-3, .cls-4 {
        stroke: none;
      }

      .cls-4 {
        fill: #fff;
      }

      .cls-5 {
        filter: url(#Intersection_1);
      }
    </style>
    <filter id="Intersection_1" x="-89.999" y="-29.999" width="938.999" height="601.998" filterUnits="userSpaceOnUse">
      <feOffset dy="60" input="SourceAlpha"/>
      <feGaussianBlur stdDeviation="30" result="blur"/>
      <feFlood flood-opacity="0.161"/>
      <feComposite operator="in" in2="blur"/>
      <feComposite in="SourceGraphic"/>
    </filter>
    <clipPath id="clip-logo_background">
      <rect width="759" height="771"/>
    </clipPath>
  </defs>
  <g id="logo_background" class="cls-1">
    <g class="cls-5" transform="matrix(1, 0, 0, 1, 0, 0)">
      <g id="Intersection_1-2" data-name="Intersection 1" class="cls-2" transform="translate(-7379 -1407)">
        <path class="cls-3" d="M 8137.49951171875 1828.499267578125 L 7659.4990234375 1828.499267578125 L 7659.4990234375 1828.312133789063 L 7659.4990234375 1827.844848632813 L 7659.03271484375 1827.813232421875 C 7639.84326171875 1826.520141601563 7620.73876953125 1823.373291015625 7602.24951171875 1818.460205078125 C 7584.17626953125 1813.65771484375 7566.458984375 1807.107055664063 7549.5888671875 1798.990234375 C 7532.9794921875 1790.998901367188 7517.00537109375 1781.400512695313 7502.109375 1770.461791992188 C 7487.32177734375 1759.602783203125 7473.44677734375 1747.312866210938 7460.86962890625 1733.933471679688 C 7448.27392578125 1720.533935546875 7436.8544921875 1705.908813476563 7426.93017578125 1690.46435546875 C 7416.9033203125 1674.861328125 7408.296875 1658.257446289063 7401.349609375 1641.113647460938 C 7394.2744140625 1623.655395507813 7388.8369140625 1605.4287109375 7385.18701171875 1586.939575195313 C 7381.44482421875 1567.984130859375 7379.53173828125 1548.490234375 7379.5009765625 1528.999633789063 L 7379.5009765625 1528.500732421875 L 7379.5009765625 1407.501586914063 L 8137.49951171875 1407.501586914063 L 8137.49951171875 1828.499267578125 Z"/>
        <path class="cls-4" d="M 8136.99951171875 1827.999267578125 L 8136.99951171875 1408.001586914063 L 7380.0009765625 1408.001586914063 L 7380.0009765625 1528.500732421875 L 7380.0009765625 1528.998901367188 C 7380.03173828125 1548.457275390625 7381.94189453125 1567.918823242188 7385.67724609375 1586.8427734375 C 7389.3212890625 1605.30078125 7394.75 1623.496948242188 7401.81298828125 1640.92578125 C 7408.74853515625 1658.040893554688 7417.3408203125 1674.617065429688 7427.3505859375 1690.194091796875 C 7437.2587890625 1705.61279296875 7448.65869140625 1720.213745117188 7461.23388671875 1733.591064453125 C 7473.79052734375 1746.9482421875 7487.64208984375 1759.2177734375 7502.4052734375 1770.058837890625 C 7517.2763671875 1780.979248046875 7533.22412109375 1790.561645507813 7549.8056640625 1798.539672851563 C 7566.6474609375 1806.642944335938 7584.3349609375 1813.182495117188 7602.3779296875 1817.976928710938 C 7620.8359375 1822.8818359375 7639.90869140625 1826.0234375 7659.06640625 1827.314453125 L 7659.9990234375 1827.377319335938 L 7659.9990234375 1827.999267578125 L 8136.99951171875 1827.999267578125 M 8137.99951171875 1828.999267578125 L 7658.9990234375 1828.999267578125 L 7658.9990234375 1828.312133789063 C 7502.76171875 1817.783081054688 7379.2529296875 1687.8486328125 7379.0009765625 1529.00048828125 L 7379.0009765625 1528.500732421875 L 7379.0009765625 1407.001586914063 L 8137.99951171875 1407.001586914063 L 8137.99951171875 1828.999267578125 Z"/>
      </g>
    </g>
  </g>
</svg>
